<svg xmlns="http://www.w3.org/2000/svg" xmlns:xlink="http://www.w3.org/1999/xlink" xmlns:inkscape="http://www.inkscape.org/namespaces/inkscape" version="1.1" width="296.90205" height="296.90199" viewBox="0 0 296.90205 296.90199">
<defs>
<clipPath id="clip_1">
<path transform="matrix(1,0,0,-1,-271.4997,445.50019)" d="M271.4997 148.5982H568.40176V445.50019H271.4997Z"/>
</clipPath>
<clipPath id="clip_2">
<path transform="matrix(1,0,0,-1,-271.4997,445.50019)" d="M0 0H841.89V595.276H0Z"/>
</clipPath>
<clipPath id="clip_3">
<path transform="matrix(1,0,0,-1,-271.4997,445.50019)" d="M0 595.276H841.89V0H0Z"/>
</clipPath>
</defs>
<g clip-path="url(#clip_1)">
<g clip-path="url(#clip_2)">
<g inkscape:groupmode="layer" inkscape:label="&#x56FE;&#x5C42; 1">
<g clip-path="url(#clip_3)">
<path transform="matrix(1,0,0,-1,148.45102,5.821991)" d="M0 0C78.772 0 142.629-63.857 142.629-142.629 142.629-221.401 78.772-285.258 0-285.258-78.771-285.258-142.629-221.401-142.629-142.629-142.629-63.857-78.771 0 0 0M0 4.322C81.159 4.322 146.951-61.47 146.951-142.629 146.951-223.788 81.159-289.58 0-289.58-81.159-289.58-146.951-223.788-146.951-142.629-146.951-61.47-81.159 4.322 0 4.322" fill="#1e4a87" fill-rule="evenodd"/>
<path transform="matrix(1,0,0,-1,111.434909,41.886384)" d="M0 0C-.048 1.073-.105 2.146-.194 3.214-.283 4.326-.397 5.439-.556 6.542-.71 7.625-.878 8.715-1.219 9.752-1.276 9.928-1.333 10.105-1.381 10.281-1.448 10.52-1.483 10.758-1.536 10.997-1.576 11.208-1.611 11.412-1.761 11.58-2.141 11.994-3.616 12.149-4.582 12.237-5.897 12.352-7.558 11.84-8.71 11.191-9.866 10.542-10.661 10.03-10.975 9.814-11.402 9.518-12.745 8.494-12.745 8.494-12.745 8.494-13.712 10.405-13.663 10.767-13.592 11.284-12.824 12.069-12.347 12.758-11.734 13.658-11.337 14.316-10.635 15.707-10.33 16.307-10.272 16.979-10.546 17.619-10.917 18.479-12.899 20.599-14.418 20.457-15.041 20.4-15.177 19.981-15 19.72-13.777 17.91-13.187 16.453-15.009 14.793-15.116 14.696-15.411 14.475-15.411 14.475-15.411 14.502-15.579 14.847-15.588 14.864-15.649 15.063-15.711 15.261-15.782 15.459-15.958 15.985-16.18 16.343-16.276 16.891-16.36 17.367-16.436 17.884-16.736 18.281-16.842 18.417-16.97 18.528-17.116 18.616-18.501 19.429-18.524 16.877-18.554 16.126-18.585 15.442-18.589 14.758-18.563 14.074-18.55 13.729-18.532 13.381-18.501 13.037-18.488 12.882-18.333 12.255-18.519 12.167-18.938 11.968-19.309 11.792-19.786 11.686-20.139 11.606-20.814 11.5-21.137 11.425-21.441 11.354-21.945 11.138-22.333 11.094-22.443 11.081-22.55 11.076-22.665 11.067-22.726 11.067-22.863 10.953-22.907 10.896-22.982 10.812-22.929 10.595-22.907 10.498-22.832 10.171-22.806 10.052-22.625 9.752-22.051 8.794-21.009 8.153-20.002 7.734-19.95 7.717-19.896 7.694-19.844 7.673-19.376 7.492-19.031 7.342-18.462 7.368-17.932 7.394-17.574 7.527-17.349 7.734-17.133 7.942-17.041 7.505-16.93 7.151-16.859 6.904-16.594 6.251-16.594 6.251L-16.25 5.435C-16.25 5.435-16.656 4.922-16.913 4.547-17.19 4.128-17.459 3.735-17.76 3.333-18.091 2.892-18.449 2.468-18.824 2.062-19.071 1.792-19.181 1.369-19.565 1.572-19.698 1.642-20.051 1.938-20.183 2.013-20.373 2.119-20.726 2.221-21.181 2.189-21.485 2.172-21.989 2.177-22.218 1.973-22.399 1.81-22.492 1.465-22.589 1.249-22.713 .967-22.978 .569-23.079 .274-23.962-2.357-22.925-5.519-21.954-6.807-21.38-7.566-20.205-8.458-19.358-8.896-18.992-9.081-18.439-9.235-18.047-9.363-17.968-9.39-18.029-9.288-17.945-9.31-17.278-9.491-15.835-9.045-15.517-8.396-15.385-8.132-15.615-7.249-15.698-6.961-15.773-6.701-15.809-6.331-15.879-5.964-15.941-5.637-15.857-5.112-16.047-4.799-16.166-4.6-16.467-4.596-16.669-4.415-16.974-4.145-17.128-3.801-17.31-3.426-17.636-2.737-17.963-2.273-17.19-.313-17.054 .035-16.453 1.453-16.193 1.355-16.162 1.347-16.091 .971-16.078 .94-15.888 .194-15.888-.653-15.637-1.377-15.579-1.537-15.522-1.695-15.424-1.832-15.067-2.326-14.215-2.375-13.756-2.026-13.084-1.514-13.385-1.046-13.182-.729-12.89-.265-12.497 .534-12.207 1.002-11.619 1.947-11.187 2.451-10.71 3.461-10.564 3.766-10.162 3.58-10.26 3.187-10.502 2.194-10.361 1.744-10.811 .83-10.917 .619-11.447-.217-11.566-.415-12.188-1.479-12.621-2.339-13.633-3.064-13.857-3.223-14.207-3.492-14.471-3.559-14.758-3.633-14.979-3.607-15.266-3.686-15.424-3.726-15.562-3.783-15.703-3.872-15.769-3.907-15.826-3.96-15.862-4.026-15.897-4.101-15.95-4.176-15.945-4.26-15.941-4.304-15.928-4.349-15.906-4.388-15.755-4.688-15.509-4.958-15.212-5.152-14.617-5.544-13.875-5.712-13.712-5.695-13.557-5.677-13.531-5.598-13.531-5.598-13.531-5.598-13.376-5.43-13.354-5.514-13.244-5.875-13.23-6.357-13.23-6.662-13.226-7.279-13.173-7.757-12.652-8.237-12.409-8.458-12.207-8.622-11.901-8.737-11.685-8.816-11.434-8.917-11.292-8.891-10.551-8.754-9.994-8.529-9.518-8.225-9.412-8.158-9.363-8.215-9.319-8.339-9.187-8.692-9.142-8.961-9.01-9.416-8.793-10.146-8.697-10.758-8.361-11.315-7.968-11.959-7.266-12.079-6.79-11.487-6.56-11.209-6.282-10.811-6.043-10.542-5.571-9.995-5.602-9.681-5.925-9.041-6.503-7.898-7.253-5.933-7.253-5.933-7.253-5.933-7.059-5.576-6.935-5.333-6.759-5.002-6.67-4.838-6.67-4.838-6.67-4.838-6.604-4.896-6.6-4.896-5.756-5.452-4.648-5.558-3.616-5.752-2.834-5.898-1.629-6.172-1.099-5.368-.04-3.757 .084-1.868 0 0M-10.375-5.346C-10.423-5.514-10.538-5.607-10.789-5.726-11.116-5.88-11.306-5.937-11.306-5.937-11.306-5.937-11.836-5.66-12.211-4.927-12.276-4.794-12.282-4.542-12.224-4.419-12.132-4.229-11.977-4.115-11.805-3.938-11.655-3.788-11.469-3.62-11.284-3.47-11.213-3.413-11.169-3.351-11.094-3.519-11.049-3.62-11.01-3.695-10.983-3.752-10.864-3.995-10.679-4.397-10.582-4.653-10.573-4.671-10.564-4.688-10.56-4.706-10.52-4.812-10.48-4.914-10.445-5.02-10.414-5.112-10.343-5.249-10.375-5.346M-7.46-2.083C-7.478-2.146-7.496-2.203-7.518-2.265-7.571-2.423-7.624-2.578-7.695-2.728-7.761-2.865-8.22-3.536-8.295-3.536-8.432-3.519-8.485-3.249-8.533-3.121-8.657-2.799-8.701-2.764-8.789-2.573-8.869-2.401-9.187-1.858-9.2-1.783-9.213-1.687-8.97-1.501-8.793-1.364-8.697-1.289-8.582-1.333-8.339-1.408-8.065-1.496-7.738-1.554-7.646-1.594-7.566-1.629-7.5-1.695-7.5-1.695-7.5-1.695-7.426-1.837-7.438-1.876-7.465-1.947-7.438-2.013-7.46-2.083M-1.435 .781C-1.519-.208-1.691-1.174-2.075-2.194-2.181-2.468-2.397-2.688-2.613-2.887-3.011-3.249-3.505-3.439-4.004-3.611-4.445-3.761-4.931-3.792-5.39-3.69-5.545-3.655-5.726-3.615-5.862-3.536-5.872-3.527-6.039-3.439-6.039-3.434-5.916-3.196-5.902-3.055-5.805-2.834-5.655-2.494-5.588-2.123-5.545-1.757-5.509-1.444-5.438-1.108-5.594-.825-5.721-.587-5.712-.503-5.959-.367-6.308-.164-6.648-.34-6.975-.481-6.997-.49-7.015-.503-7.037-.512-7.103-.543-7.178-.547-7.249-.521L-7.884-.273C-7.884-.273-7.872-.256-7.827-.154-7.809-.119-7.527 .371-7.483 .424-7.363 .587-7.253 .759-7.156 .936-7.067 1.099-6.944 1.289-7.015 1.483-7.063 1.616-7.191 1.7-7.319 1.766-7.571 1.894-7.911 2.066-8.189 2.128-8.436 2.181-8.582 2.177-8.803 2.309-9.16 2.525-9.2 2.759-8.975 3.059-8.494 3.686-8.233 4.044-7.897 4.644-7.566 5.236-7.227 5.024-7.218 5.589-7.213 5.744-7.324 5.959-7.438 6.066-7.655 6.264-8.339 6.145-8.75 6.229-9.138 6.309-9.341 6.326-9.558 6.331-10.4 6.344-11.019 6.366-11.456 5.408-11.756 4.755-11.901 4.234-12.255 3.603-12.515 3.143-12.709 2.772-13.023 2.349-13.301 1.964-13.813 1.095-14.246 .777-14.542 .561-14.515 .759-14.582 1.038-14.705 1.563-14.877 2.194-15.071 3.169-15.12 3.412-14.785 3.735-14.665 3.916-14.422 4.287-14.162 4.635-13.879 4.975-13.262 5.717-12.59 6.406-11.911 7.085-11.146 7.849-10.369 8.608-9.487 9.235-8.568 9.884-7.615 10.163-6.525 10.418-5.677 10.617-4.816 10.837-3.951 10.626-3.664 10.555-3.435 10.44-3.183 10.291-2.874 10.105-2.667 9.412-2.539 9.098-1.986 7.726-2 6.904-1.748 5.452-1.713 5.253-1.629 5.024-1.616 4.82-1.554 3.465-1.32 2.189-1.435 .781" fill="#1e4a87"/>
<path transform="matrix(1,0,0,-1,193.7171,39.476289)" d="M0 0C.033 .047-.008 .109-.064 .098-.491 .007-1.499-.224-1.684-.229-2.841-.263-3.805-.475-4.822-.069-5.566 .228-6.117 1.276-6.44 2.01-6.605 2.385-6.755 2.687-6.834 2.979-6.867 3.103-6.908 3.227-6.913 3.352-6.917 3.441-6.919 3.466-6.904 3.582-6.895 3.651-6.854 3.843-6.818 3.959-6.686 4.402-6.564 4.811-6.338 5.38-6.244 5.617-5.899 5.862-5.597 5.98-5.537 6.003-5.479 6.021-5.426 6.035-5.374 6.046-5.322 6.051-5.271 6.051-5.078 6.051-4.925 5.958-4.784 5.792-4.606 5.584-4.468 5.386-4.315 5.158-4.22 5.013-4.165 4.902-4.076 4.775-4.026 4.705-3.952 4.522-3.892 4.418-3.751 4.18-3.658 3.994-3.658 3.994-3.517 3.907-3.373 3.817-3.222 3.749-3.007 3.65-2.778 3.597-2.553 3.525-2.4 3.477-2.251 3.439-2.09 3.426-1.486 3.375-.882 3.347-.276 3.318 .047 3.303 .372 3.29 .695 3.285 1.027 3.281 1.358 3.275 1.683 3.327 1.778 3.341 1.858 3.357 1.955 3.379 2.008 3.391 2.073 3.408 2.09 3.424 2.116 3.45 2.162 3.529 2.196 3.582 2.216 3.614 2.258 3.691 2.274 3.718 2.317 3.787 2.321 3.807 2.358 3.867 2.482 4.069 2.579 4.295 2.688 4.496 3.47 5.932 4.448 7.989 4.819 9.591 4.969 10.241 4.731 10.39 4.787 11.055 4.849 11.804 5.669 11.894 6.279 11.997 6.308 12.001 6.352 11.997 6.377 11.986 6.603 11.883 6.727 11.648 6.884 11.469 7.102 11.22 7.363 10.991 7.486 10.676 7.707 10.11 7.949 9.536 8.143 8.98 8.253 8.663 8.393 8.357 8.468 8.031 8.506 7.868 8.54 7.703 8.574 7.539 8.6 7.419 8.644 7.309 8.685 7.194 8.737 7.043 8.791 6.891 8.833 6.736 8.85 6.674 8.842 6.536 8.793 6.474 8.208 5.74 7.897 5.213 7.442 4.326 7.431 4.303 6.982 3.468 6.982 3.468 6.982 3.468 7.74 3.38 7.915 3.358 8.766 3.248 9.302 3.399 10.118 3.137 10.608 2.979 11.038 2.677 11.458 2.38 11.796 2.14 12.141 1.894 12.386 1.561 12.633 1.227 12.768 .785 12.639 .391 12.503-.021 12.103-.302 11.682-.404 11.262-.507 10.82-.46 10.392-.396 9.67-.288 9.053-.06 8.351 .138 7.778 .3 7.105 .341 6.227 .482 5.813 .548 5.411 .521 5.271 .416 5.015 .224 4.882-.002 4.624-.314 4.074-.98 3.294-2.149 2.657-2.797 2.495-2.962 2.022-3.591 1.453-4.206 1.078-4.611 .634-4.99 .305-5.299-.157-5.733-.65-6.137-1.141-6.511-1.617-6.875-2.194-7.065-2.731-7.327-3.071-7.494-3.501-7.556-3.856-7.689-4.633-7.98-5.273-8.142-6.102-8.164-6.456-8.172-6.81-8.155-7.162-8.123-7.687-8.075-8.155-7.968-8.643-7.755-9.22-7.504-9.588-7.078-9.799-6.485-10.063-5.739-10.078-5.03-9.703-4.346-9.455-3.894-9.058-3.149-8.464-3.396-8.185-3.512-7.962-3.778-7.671-3.861-7.45-3.924-7.227-3.936-6.999-3.904-4.691-3.576-2.102-2.742-.711-.867-.668-.811-.187-.274 0 0" fill="#1e4a87"/>
<path transform="matrix(1,0,0,-1,201.06772,49.888887)" d="M0 0C.034-.304-.076-.552-.156-.842-.204-1.016-.256-1.195-.37-1.333-.605-1.616-.82-1.698-1.159-1.79-1.547-1.893-1.854-1.925-2.241-1.82-3.179-1.566-3.617-.757-3.947 .062-4.19 .666-4.448 1.277-4.49 1.927-4.534 2.621-4.297 2.902-4.44 3.594-4.492 3.842-4.608 4.063-4.374 4.264-4.241 4.379-4.055 4.393-3.884 4.433-3.791 4.453-3.689 4.504-3.602 4.499-3.081 4.469-2.128 3.788-1.58 3.227-1.577 3.225-1.575 3.222-1.573 3.22-.871 2.499-.374 1.583-.114 .613-.056 .395-.009 .08 0 0" fill="#1e4a87"/>
<path transform="matrix(1,0,0,-1,50.7742,92.37619)" d="M0 0C-.437-.335-1.439-1.682-1.779-2.11-1.912-2.282-2.048-2.45-2.186-2.626-2.433-2.94-2.786-3.386-3.236-3.682-2.94-2.534-2.618-1.677-2.428-.816-2.04 .927-1.629 2.278-1.391 4.243-1.28 5.147-1.192 5.625-1.117 6.507-1.042 7.368-1.144 8.926-1.616 9.452-1.823 9.682-2.199 9.88-2.472 9.999-3.717 10.546-5.223 9.995-6.375 9.452-7.143 9.085-7.699 8.578-8.282 7.973-8.997 7.218-9.575 6.088-10.043 5.174-10.198 4.87-10.511 4.128-10.511 4.128-10.511 4.128-11.041 4.561-11.385 4.786-11.703 4.998-12.714 5.347-12.714 5.347-12.714 5.347-12.348 6.322-12.272 6.525-11.867 7.686-11.862 8.97-12.065 10.181-12.123 10.529-12.202 10.887-12.4 11.183-12.599 11.487-12.904 11.704-13.208 11.911-13.61 12.18-14.042 12.445-14.524 12.516-15.478 12.652-16.17 11.716-16.607 10.992-17.084 10.207-17.354 9.116-17.667 8.251-17.998 7.324-18.064 6.423-18.298 5.465-18.444 4.856-18.74 4.008-18.952 3.422-19.217 2.675-19.451 2.229-19.87 1.563-20.603 .415-21.331-.728-22.011-1.903-22.157-2.15-22.488-2.798-22.643-3.041-22.744-3.196-22.934-4.776-22.484-5.297-22.135-5.699-21.812-5.664-21.592-5.479-21.367-5.293-21.252-5.218-21.066-4.803-20.987-4.617-20.903-4.41-20.784-4.238-20.391-3.677-19.879-3.165-19.296-2.842-18.974-2.67-18.308-2.79-18.308-2.79-17.089-4.118-15.729-5.253-14.316-6.375-14.286-6.4-14.338-6.608-14.343-6.648-14.542-8.511-15.063-10.361-15.089-12.237-15.098-12.877-15.725-13.054-16.634-13.173-17.239-13.248-18.025-13.363-18.36-13.106-18.542-12.97-18.674-12.785-18.775-12.585-18.912-12.312-19.009-12.021-19.115-11.729-19.204-11.5-19.367-11.301-19.539-11.195-19.698-11.098-20.002-11.129-20.175-11.187-20.775-11.398-20.877-12.092-20.938-12.696-21.036-13.686-20.952-14.771-20.643-15.702-20.382-16.484-19.821-16.938-19.142-17.349-18.285-17.865-17.151-17.918-16.157-17.918-13.111-17.914-10.07-17.429-7.452-15.946-5.576-14.881-5.258-12.948-4.583-11.151-4.057-9.765-3.721-9.345-2.989-8.061-2.737-7.624-2.163-6.706-1.92-6.238-1.483-5.394-.794-4.167-.26-3.536 .159-3.037 1.227-2.229 1.594-1.69 2.517-.322 1.488 1.134 0 0M-12.246-.114C-12.308-.318-12.436-.662-12.498-.892-12.516-.962-12.732-1.55-12.732-1.55-13.12-1.245-13.429-1.108-13.888-.914-14.462-.667-15.023-.499-15.61-.3-15.76-.247-16.017-.132-16.017-.132-16.017-.132-15.544 .556-15.367 .795-15.133 1.104-14.904 1.413-14.67 1.726-14.563 1.863-14.316 2.234-14.316 2.234-14.316 2.234-13.959 1.894-13.721 1.682-13.244 1.241-13.208 1.227-12.767 .844-12.458 .574-12.127 .256-12.127 .256-12.127 .256-12.184 .102-12.246-.114M-6.123-8.582C-6.499-9.134-6.927-9.654-7.474-10.029-7.898-10.321-8.516-10.555-9.006-10.705-9.478-10.846-9.677-10.855-10.171-11.001-10.432-11.081-10.842-11.213-11.094-11.045-11.619-10.692-11.575-9.739-11.544-9.288-11.518-8.913-11.376-8.26-11.376-8.26-11.376-8.26-10.798-8.586-10.732-8.626-10.207-8.948-9.641-8.852-9.081-8.701-8.706-8.604-8.321-8.361-8.277-7.981-8.247-7.704-8.41-7.372-8.507-7.112-8.944-5.88-9.505-4.662-10.388-3.527-10.388-3.527-10.273-3.006-10.233-2.798-10.176-2.539-10.079-1.982-10.079-1.982-10.079-1.982-9.818-2.313-9.699-2.467-9.099-3.249-8.551-3.818-7.862-4.521-7.593-4.794-7.319-5.063-7.05-5.333-6.759-5.619-6.489-5.968-6.052-6-5.788-6.021-5.58-6.004-5.324-5.929-5.209-5.893-5.121-5.872-4.98-5.783-5.213-6.763-5.532-7.708-6.123-8.582M-4.591-3.933C-4.605-4.008-4.622-4.088-4.635-4.163-4.702-4.507-4.847-4.459-4.993-4.189-5.231-3.743-5.413-3.24-5.558-2.927-5.558-2.922-5.562-2.917-5.562-2.914-5.571-2.905-5.571-2.9-5.571-2.9-5.682-2.706-5.792-2.516-5.832-2.454-6.401-1.536-6.918-.587-7.452 .357-7.708 .821-7.968 1.148-8.238 1.603-8.41 1.885-8.944 2.539-8.944 2.539-8.944 2.539-8.728 3.523-8.706 3.611-8.675 3.748-8.502 4.587-8.198 5.289-8.021 5.695-7.973 5.722-7.778 6.114-7.553 6.574-7.258 7.006-6.971 7.426-6.564 8.021-6.083 8.396-5.403 8.631-4.913 8.798-4.472 8.847-3.951 8.617-3.183 8.277-3.02 7.84-2.799 6.635-2.773 6.489-2.914 5.006-2.923 4.856-3.015 3.342-3.655 1.413-4.136-1.32-4.291-2.189-4.41-3.068-4.591-3.933M-2.715-5.363C-2.923-5.716-3.183-6.035-3.404-6.379-3.457-6.472-3.625-6.714-3.713-6.776-3.819-6.851-3.991-7.045-4.092-6.962-4.269-6.816-3.616-5.324-3.616-5.324-3.616-5.324-2.971-5.001-2.667-4.82-2.397-4.666-2.684-5.311-2.715-5.363" fill="#1e4a87"/>
<path transform="matrix(1,0,0,-1,276.67323,92.95819)" d="M0 0C-.124 .251-.874 .586-1.766 .503-2.561 .432-3.779-.023-4.72-.138-5.435-.221-6.918 .388-7.757 .904-7.342 1.165-6.428 1.629-5.837 2.163-5.73 2.251-5.576 2.463-5.483 2.542-5.417 2.604-5.333 2.683-5.276 2.732-5.068 2.917-4.954 2.979-4.954 2.979-4.954 2.979-4.318 2.692-3.828 2.568-3.188 2.405-2.481 2.211-1.819 2.18-1.475 2.163-1.32 2.335-.998 2.463-.835 2.524-.376 2.564-.282 2.71-.177 2.878-.278 3.112-.327 3.306-.57 4.294-1.851 4.489-2.866 4.542-4.459 4.622-5.24 4.145-5.24 4.145-5.24 4.145-7.712 4.485-8.865 4.834-9.081 4.899-10.807 5.337-10.807 5.337-10.807 5.337-8.702 6.317-8.186 6.635-7.669 6.953-7.14 7.57-6.927 8.14-6.582 9.054-7.077 9.552-7.929 9.376-8.918 9.173-9.783 8.493-10.573 7.871-11.368 7.249-13.801 5.65-13.801 5.65-13.801 5.65-14.348 5.726-14.573 5.761-14.803 5.795-15.227 5.994-15.315 6.207-15.461 6.573-14.785 6.851-15.041 7.703-15.134 7.994-15.628 7.923-15.871 7.765-16.043 7.65-16.577 7.332-16.776 7.274-17.244 7.143-17.116 7.041-17.597 7.089-18.684 7.195-19.19 6.816-19.742 6.264-20.175 5.831-20.523 5.12-20.131 4.573-19.712 3.981-18.679 4.145-17.977 4.33-17.279 4.511-16.343 4.6-15.65 4.392-16.277 3.973-16.899 3.602-17.367 3.28-17.632 3.094-18.043 2.229-17.743 2.096-17.628 2.043-16.308 2.631-15.871 2.891-13.147 4.521-12.4 4.524-12.392 4.524-12.392 4.524-9.095 4.167-7.063 3.712-6.795 3.65-5.986 3.421-5.986 3.421-5.986 3.421-6.565 2.719-6.671 2.631-7.214 2.171-8.971 1.417-8.971 1.417-8.971 1.417-10.093 1.646-10.86 2.057-10.948 2.101-11.041 2.158-11.086 2.251-11.156 2.401-11.068 2.556-10.979 2.675-10.887 2.811-10.759 2.935-10.701 3.094-10.68 3.152-10.671 3.209-10.684 3.271-10.701 3.341-10.75 3.398-10.794 3.452-10.803 3.46-10.909 3.588-10.896 3.598-11.051 3.509-11.223 3.452-11.39 3.398-11.571 3.346-11.752 3.284-11.933 3.227-12.291 3.107-12.652 2.988-13.01 2.865-13.368 2.741-13.682 2.631-14.057 2.56-14.392 2.494-14.392 2.494-14.736 2.392-14.767 2.379-15.191 2.3-15.227 2.286-15.447 2.203-15.831 2.119-15.857 2.07-15.924 1.959-15.937 1.783-16.004 1.62-16.087 1.403-16.272 1.315-16.281 1.178-16.295 1.081-16.343 .917-16.268 .847-16.14 .732-15.955 .728-15.782 .719-15.602 .714-15.434 .781-15.253 .834-14.701 .988-13.871 1.474-13.698 1.187-13.548 .931-13.77 .732-13.941 .582-14.316 .255-14.719 .198-14.948-.102-15.09-.278-14.983-.716-15.111-.91-18.551 1.862-22.228 4.339-26.126 6.414-26.471 6.595-27.062 6.802-27.459 7.221-27.534 7.296-27.804 7.773-27.741 7.862-27.499 8.197-27.128 8.767-26.934 9.085-26.678 9.495-26.735 10.051-27.163 10.281-27.384 10.4-27.653 10.343-27.91 10.312-29.459 10.113-31.3 10.859-32.634 10.043-33.105 9.751-33.344 9.412-33.419 8.833-33.428 8.775-33.459 8.732-33.48 8.678-33.582 8.479-33.719 8.272-33.78 8.038-33.976 7.319-34.129 6.449-33.684 5.854-33.044 5.001-31.657 5.006-30.519 5.099-30.413 5.107-30.245 5.16-30.147 5.169-30.037 5.178-29.865 5.156-29.755 5.164-27.093 5.328-24.436 4.41-22.148 3.028-19.765 1.584-17.721-.345-15.698-2.26-15.549-2.402-15.275-2.544-15.323-2.742-15.434-3.188-15.698-4.132-15.218-4.526-14.728-4.927-14.083-4.159-13.447-4.155-13.002-4.155-12.657-4.539-12.379-4.892-11.16-6.433-9.757-8.437-9.915-10.397-9.929-10.552-9.986-10.873-10.074-10.998-10.141-11.09-10.154-11.173-10.317-11.169-10.564-11.165-10.869-11.129-11.156-11.006-11.288-10.944-11.514-10.684-11.611-10.552-12.291-9.584-12.617-9.055-13.323-7.903-13.757-7.201-14.423-6.648-15.116-5.625-15.173-5.589-15.213-5.607-15.244-5.651-15.293-5.726-15.302-5.885-15.253-5.982-14.304-7.982-13.642-8.384-12.26-11.315-11.813-12.255-10.918-13.376-9.827-13.628-9.398-13.725-9.06-13.562-8.702-13.315-7.836-12.719-7.969-11.514-8.247-10.648-8.971-8.384-10.118-6.251-11.611-4.397-11.818-4.142-12.008-3.925-11.796-3.669-11.708-3.563-11.566-3.523-11.434-3.483-9.999-3.073-8.573-2.605-7.14-2.195-6.569-2.031-5.479-1.762-4.72-1.603-4.521-1.559-3.797-1.82-3.25-1.974-2.711-2.124-2.146-2.23-1.969-2.239-1.634-2.265-.688-1.462-.005-.574 .093-.446 .123-.256 0 0M-2.592 3.58C-2.292 3.5-1.625 3.059-2.014 3.002-2.389 2.944-3.863 3.513-3.942 3.544-3.881 3.553-3.347 3.77-2.592 3.58M-12.392-2.539C-12.573-2.711-12.834-2.667-13.081-2.557-13.235-2.521-13.571-2.164-13.69-2.066-13.761-2.005-13.854-1.767-13.739-1.475-13.664-1.298-13.544-1.214-13.395-1.069-13.218-1.06-13.155-1.06-13.002-1.025-12.865-.989-12.745-1.426-12.631-1.704-12.516-1.978-12.176-2.332-12.392-2.539M-11.85 .317C-12.088 .264-12.331 .211-12.569 .158-12.64 .141-12.714 .123-12.789 .123-12.816 .123-12.838 .123-12.869 .128-12.944 .141-13.076 .158-13.138 .203-13.297 .322-13.006 .675-12.948 .785-12.82 1.028-12.891 1.359-12.657 1.545-12.326 1.801-12.004 1.659-11.461 1.443-10.997 1.258-10.118 .927-10.053 .909-10.079 .909-10.149 .864-10.172 .856-10.265 .816-10.361 .777-10.45 .736-10.662 .644-10.86 .556-11.086 .499-11.337 .432-11.593 .375-11.85 .317M-9.678-1.718C-9.81-1.921-10.923-2.195-11.015-1.789-11.032-1.731-11.02-1.665-11.001-1.603-10.944-1.365-10.675-1.356-10.296-1.546-10.132-1.629-9.606-1.603-9.678-1.718M-6.389-.822C-6.517-.857-6.64-.893-6.764-.932-7.006-1.007-7.245-1.091-7.487-1.162-7.726-1.232-7.982-1.307-8.221-1.378-8.477-1.458-8.781-1.581-8.923-1.449-9.033-1.347-8.724-1.237-8.799-.804-8.883-.31-9.086-.049-9.2 .087-9.319 .233-8.794 .375-8.794 .375-8.688 .339-8.459 .264-8.207 .154-8.009 .07-7.718-.014-7.475-.12-6.821-.402-6.163-.698-6.083-.738-6.146-.729-6.335-.808-6.389-.822M-1.89-.972C-2.005-1.042-2.12-1.095-2.34-1.082-2.751-1.051-3.095-.817-3.095-.817-3.095-.817-2.548-.565-2.172-.508-2.04-.491-1.823-.548-1.784-.57-1.704-.605-1.475-.707-1.89-.972" fill="#1e4a87"/>
<path transform="matrix(1,0,0,-1,252.54718,101.10858)" d="M0 0C-.693-.505-1.274-.979-2.12-1.25-3.252-1.613-5.012-2.092-6.376-1.849-6.579-1.812-6.965-1.74-7.301-1.614-7.46-1.553-7.61-1.477-7.758-1.392-7.979-1.265-8.178-1.062-8.298-.836-8.396-.649-8.465-.446-8.529-.245-8.587-.067-8.722 .166-8.77 .354-8.881 .789-8.901 1.252-8.998 1.672-9.185 2.491-9.226 3.283-9.412 4.101-9.557 4.733-9.559 4.992-9.606 5.537L-9.572 6.047C-9.546 6.141-9.404 6.433-9.316 6.389-8.805 6.137-8.465 5.544-8.416 4.991-8.336 4.076-8.131 2.876-7.708 2.044-7.653 1.937-7.406 1.676-7.33 1.619-6.952 1.333-6.523 1.114-6.07 .978-5.838 .907-5.6 .859-5.357 .837-5.244 .826-5.106 .802-4.994 .821-4.892 .837-4.789 .89-4.688 .917-4.518 .964-4.357 1.03-4.193 1.086-3.571 1.301-2.83 1.704-2.245 2.152-2.084 2.274-1.934 2.421-1.934 2.421-1.934 2.421-2.394 2.692-2.653 2.837-3.283 3.186-3.738 3.847-4.307 4.292-4.521 4.46-4.745 4.627-4.903 4.85-5.315 5.428-5.028 6.461-4.94 7.11-4.845 7.814-4.595 8.524-3.883 8.81-3.564 8.937-3.271 9.076-3.002 8.77-2.6 8.313-2.308 7.809-2.456 7.144-2.471 7.075-2.456 6.972-2.417 6.913-1.846 6.063-1.24 5.266-.46 4.597-.249 4.417 .094 4.143 .297 4.596 .451 4.943 .517 5.341 .863 5.531 1.127 5.675 1.457 5.693 1.734 5.579 2.09 5.433 2.323 5.093 2.673 4.941 3.024 4.79 3.455 4.785 3.83 4.824 3.963 4.839 4.107 4.925 4.242 4.995 3.791 5.758 3.241 6.286 2.445 6.692 1.64 7.104 .807 7.461 .02 7.902-.382 8.127-.514 8.433-.385 8.722 .029 9.651 1.695 8.831 2.328 8.58 3.38 8.162 4.371 7.593 5.259 6.892 5.984 6.32 6.666 5.627 7.055 4.777 7.337 4.16 7.657 2.835 6.73 2.503 6.662 2.479 6.547 2.473 6.477 2.49 5.917 2.619 5.301 2.722 4.771 2.948 4.21 3.188 3.766 3.547 3.08 3.49 3.037 3.486 2.993 3.478 2.952 3.465 2.667 3.372 2.366 2.946 2.282 2.816 2.265 2.789 2.269 2.756 2.291 2.733 2.386 2.635 2.685 2.414 2.802 2.313 3.252 1.92 3.857 1.791 4.309 1.401 4.653 1.104 4.861 .682 5.054 .269 5.592-.879 5.584-1.744 5.359-2.964 5.31-3.24 4.509-3.647 4.232-3.568 3.736-3.426 3.313-3.269 3.155-2.716 3.1-2.518 3.076-2.309 3.001-2.116 2.906-1.874 2.735-1.671 2.577-1.464 2.183-.949 1.84-.373 1.314 .023 1.055 .219 .799 .451 .602 .437 .404 .422 .143 .104 0 0" fill="#1e4a87"/>
<path transform="matrix(1,0,0,-1,76.9715,257.5988)" d="M0 0C-.277-.034-.519 .07-.752 .254-1.976 1.215-3.203 2.172-4.428 3.13-4.66 3.31-4.875 3.528-4.702 3.828-4.531 4.125-4.222 4.047-3.954 3.96-3.796 3.909-3.654 3.814-3.504 3.743-2.848 3.433-2.68 3.431-2.222 4.018-1.298 5.199-.421 6.416 .479 7.616 .66 7.855 .642 8.083 .45 8.293 .301 8.456 .138 8.61-.037 8.745-1.205 9.643-2.374 10.537-3.55 11.424-4.388 12.057-4.491 12.067-5.168 11.235-5.938 10.289-6.687 9.319-7.37 8.309-7.968 7.421-7.896 7.131-7.19 6.327-7.1 6.223-6.995 6.124-6.933 6.004-6.75 5.65-6.984 5.31-7.383 5.37-7.564 5.396-7.748 5.498-7.9 5.608-9.116 6.487-10.327 7.373-11.532 8.268-11.707 8.396-11.894 8.559-11.976 8.748-12.051 8.926-12.057 9.194-11.969 9.355-11.915 9.453-11.619 9.468-11.445 9.438-11.262 9.407-11.093 9.282-10.921 9.193-10.326 8.882-10.051 8.894-9.579 9.344-9.299 9.61-9.059 9.923-8.828 10.234-7.017 12.661-5.214 15.095-3.406 17.524-2.836 18.291-2.833 18.732-3.408 19.464-3.494 19.573-3.609 19.664-3.675 19.783-3.816 20.04-3.878 20.322-3.629 20.545-3.394 20.756-3.176 20.616-2.962 20.454-1.698 19.502-.424 18.561 .837 17.603 1.109 17.396 1.514 17.22 1.312 16.756 1.187 16.47 .782 16.469 .266 16.718-.598 17.133-.598 17.133-1.187 16.42-1.824 15.647-2.461 14.877-3.093 14.101-3.267 13.887-3.436 13.662-3.577 13.424-3.774 13.093-3.741 12.798-3.397 12.56-2.941 12.242-2.494 11.912-2.049 11.579-1.113 10.883-.195 10.161 .756 9.485 1.465 8.982 1.568 9.008 2.101 9.709 2.706 10.505 3.294 11.314 3.861 12.139 4.42 12.953 4.389 13.388 3.784 14.167 3.583 14.425 3.249 14.683 3.585 15.02 3.881 15.315 4.229 15.115 4.494 14.924 5.732 14.029 6.964 13.125 8.175 12.195 8.462 11.977 8.852 11.709 8.595 11.235 8.424 10.921 8.069 10.963 7.498 11.331 6.879 11.729 6.647 11.73 6.122 11.229 5.783 10.904 5.478 10.536 5.197 10.159 3.768 8.245 2.342 6.328 .936 4.396 .496 3.792 .094 3.155-.276 2.505-.627 1.888-.578 1.712-.107 1.172 .256 .757 .301 .705 .345 .312 .375 .038 .28 .034 0 0" fill="#1e4a87"/>
<path transform="matrix(1,0,0,-1,47.0394,203.18178)" d="M0 0C-.976 .645-2.053 1.007-3.231 .918-5.395 .755-7.354 .031-9.032-1.355-10.82-2.825-11.857-4.662-11.747-7.068-11.655-9.174-10.732-10.851-9.208-12.22-7.326-13.91-4.557-14.184-2.211-13.395-.142-12.692 1.488-11.367 2.623-9.5 2.993-8.9 3.315-8.198 3.408-7.509 3.836-4.317 2.698-1.788 0 0M1.532-7.363C.146-9.323-1.823-10.493-4.062-11.222-5.088-11.558-6.074-11.664-7.103-11.514-9.62-11.16-10.935-8.988-10.176-6.45-9.897-5.518-9.381-4.736-8.595-4.159-7.743-3.536-6.896-2.904-5.995-2.362-5.483-2.048-4.887-1.841-4.299-1.699-3.576-1.523-2.825-1.417-2.08-1.364-.419-1.245 .83-1.982 1.673-3.373 2.486-4.711 2.433-6.088 1.532-7.363" fill="#1e4a87"/>
<path transform="matrix(1,0,0,-1,44.84012,224.47089)" d="M0 0C.008 .867 .767 2.16 2.142 3.1 3.955 4.337 5.788 5.546 7.605 6.778 8.018 7.059 8.419 7.362 8.792 7.692 9.21 8.063 9.329 8.519 9.035 9.04 8.927 9.233 8.791 9.44 8.78 9.647 8.77 9.834 8.866 10.089 9.006 10.199 9.105 10.278 9.368 10.2 9.532 10.131 9.646 10.083 9.723 9.937 9.804 9.824 10.701 8.587 11.599 7.35 12.487 6.105 12.87 5.57 12.905 5.296 12.656 5.074 12.395 4.841 12.062 4.956 11.6 5.437 11.022 6.038 10.815 6.088 10.092 5.67 9.662 5.421 9.271 5.103 8.866 4.809 7.295 3.665 5.717 2.531 4.161 1.366 3.632 .97 3.086 .555 2.681 .043 1.672-1.233 1.783-2.838 2.851-4.174 3.946-5.544 5.635-5.831 6.963-5.2 7.539-4.927 8.1-4.608 8.625-4.248 10.069-3.259 11.492-2.238 12.921-1.227 13.103-1.099 13.272-.953 13.442-.81 14.598 .169 14.633 .336 14.08 1.746 13.969 2.026 13.89 2.328 13.859 2.626 13.846 2.756 13.963 2.98 14.073 3.021 14.226 3.078 14.457 3.054 14.602 2.972 14.76 2.882 14.871 2.695 14.981 2.536 15.811 1.354 16.641 .172 17.457-1.02 17.612-1.246 17.747-1.501 17.821-1.763 17.949-2.219 17.656-2.487 17.223-2.309 17.001-2.217 16.808-2.04 16.625-1.874 16.023-1.326 15.778-1.254 15.066-1.62 14.475-1.925 13.905-2.277 13.356-2.653 12.096-3.519 10.865-4.428 9.601-5.286 8.912-5.752 8.198-6.189 7.46-6.572 6.399-7.123 5.291-7.182 4.153-6.762 1.832-5.907-.003-3.3 0 0" fill="#1e4a87"/>
<path transform="matrix(1,0,0,-1,37.966615,198.08908)" d="M0 0C-.469-3.622-4.757-4.39-6.735-2.831-8.246-1.641-9.066-.111-9.107 1.821-9.112 2.07-9.111 2.322-9.088 2.571-9.044 3.06-9.212 3.403-9.634 3.692-10.326 4.167-10.277 4.514-9.506 4.839-8.381 5.312-7.243 5.756-6.119 6.231-5.77 6.38-5.469 6.424-5.252 6.059-5.055 5.725-5.25 5.495-5.484 5.265-5.999 4.76-6.558 4.286-6.989 3.716-7.892 2.521-8.102 1.201-7.463-.203-6.911-1.415-6.091-1.95-4.941-1.835-3.818-1.723-2.856-.832-2.621 .354-2.535 .787-2.495 1.234-2.483 1.677-2.459 2.593-2.468 3.51-2.464 4.428-2.456 6.44-1.478 7.78 .446 8.41 1.964 8.907 4.021 8.17 5.019 6.763 5.721 5.773 5.986 4.646 5.973 3.456 5.966 2.812 6.003 2.276 6.657 1.898 7.103 1.64 7.048 1.275 6.601 .985 6.347 .821 6.06 .704 5.777 .591 4.9 .242 4.017-.088 3.141-.438 2.791-.578 2.444-.738 2.189-.319 1.94 .09 2.23 .366 2.498 .608 2.949 1.02 3.45 1.379 3.88 1.811 4.756 2.688 5.012 3.759 4.714 4.955 4.456 5.995 3.638 6.705 2.676 6.755 1.55 6.813 .65 6.255 .368 5.12-.207 2.809 .258 1.998 0 0" fill="#1e4a87"/>
<path transform="matrix(1,0,0,-1,63.927095,226.76969)" d="M0 0C2.756-3.185 5.923-5.868 8.713-9.044 8.199-9.592 7.73-10.093 7.26-10.592 7.032-10.835 6.806-11.081 6.568-11.314 6.274-11.604 6.27-11.599 5.605-11.586 5.586-11.389 5.522-11.173 5.557-10.976 5.629-10.566 5.74-10.164 5.861-9.767 5.997-9.319 6.222-8.907 6.019-8.404 5.734-7.7 5.412-7.033 4.823-6.529 4.472-6.229 4.124-6.242 3.776-6.541 3.293-6.959 2.776-7.342 2.326-7.793 .678-9.442-.954-11.11-2.582-12.781-2.911-13.119-3.208-13.488-3.501-13.858-4.232-14.782-4.227-15.015-3.585-16.001-3.423-16.249-3.281-16.537-3.234-16.824-3.179-17.152-3.47-17.336-3.775-17.185-4.021-17.063-4.259-16.901-4.453-16.709-5.62-15.56-6.777-14.4-7.926-13.231-8.117-13.037-8.293-12.801-8.39-12.55-8.456-12.376-8.448-12.068-8.338-11.959-8.218-11.841-7.91-11.809-7.737-11.875-7.461-11.982-7.225-12.197-6.979-12.377-6.372-12.818-6.156-12.854-5.571-12.396-4.981-11.936-4.417-11.438-3.886-10.91-2.644-9.677-1.44-8.405-.2-7.171 .487-6.485 1.207-5.831 1.931-5.184 2.454-4.717 2.527-4.373 2.1-3.837 1.618-3.229 .97-2.833 .228-2.666-.062-2.601-.419-2.741-.724-2.849-1.193-3.015-1.633-3.267-2.105-3.419-2.38-3.507-2.72-3.569-2.896-3.188-3.053-2.85-2.914-2.618-2.666-2.387-1.953-1.725-1.259-1.044-.55-.379-.412-.25-.237-.161 0 0" fill="#1e4a87"/>
<path transform="matrix(1,0,0,-1,246.6839,123.397678)" d="M0 0C-10.803 42.989-48.79 74.39-93.779 76.306-141.969 78.354-182.031 47.271-195.085 5.408-201.848-16.281-201.318-37.908-193.796-59.354-183.055-87.947-163.344-107.83-135.228-119.648-136.155-122.284-137.09-124.941-138.044-127.647-124.288-132.932-110.148-135.364-95.527-135.011-83.082-134.711-71.039-132.366-59.346-127.952-60.294-125.246-61.222-122.606-62.166-119.904-38.305-110.343-20.113-94.485-8.281-71.724 3.563-48.932 6.251-24.872 0 0M-63.155-117.406C-63.54-116.318-63.967-115.132-64.374-113.984-65.119-114.269-65.869-114.543-66.622-114.809-65.271-118.643-63.888-122.562-62.52-126.451-75.154-130.893-88.063-132.883-101.328-132.518-112.819-132.203-123.984-130.115-134.875-126.155-133.507-122.308-132.079-118.321-130.72-114.5-131.542-114.201-132.358-113.894-133.168-113.573-133.572-114.7-134.046-115.995-134.429-117.066-167.648-104.931-199.425-68.691-197.261-20.514-194.97 30.571-154.365 70.607-104.78 73.706-51.955 77.003-7.69 38.977-.543-10.511 6.834-61.605-24.895-103.376-63.155-117.406" fill="#1e4a87"/>
<path transform="matrix(1,0,0,-1,108.099918,265.9494)" d="M0 0C-.368-1.024-.735-2.039-1.095-3.056-1.233-3.448-1.378-3.841-1.479-4.243-1.667-4.987-1.479-5.496-.808-5.868 .191-6.424 1.251-6.839 2.391-7.015 2.979-7.106 3.501-6.913 3.952-6.568 4.479-6.163 4.968-5.707 5.478-5.278 5.668-5.119 5.854-4.937 6.074-4.834 6.381-4.689 6.686-4.904 6.602-5.213 6.258-6.471 5.933-7.741 5.188-8.844 5.113-8.954 4.99-9.031 4.838-9.171 3.105-8.539 1.363-7.898-.384-7.27-2.265-6.593-4.149-5.925-6.036-5.263-6.702-5.027-6.928-4.774-6.764-4.379-6.616-4.02-6.324-3.975-5.688-4.213-4.688-4.587-4.251-4.418-3.891-3.413-2.848-.512-1.833 2.4-.807 5.307-.751 5.464-.698 5.622-.641 5.778-.288 6.745-.418 7.187-1.237 7.788-1.259 7.804-1.281 7.821-1.305 7.835-1.62 8.021-2.007 8.207-1.773 8.656-1.54 9.105-1.122 8.872-.809 8.765 .977 8.152 2.751 7.506 4.532 6.882 5.422 6.57 6.327 6.295 7.216 5.979 7.633 5.831 8.044 5.652 8.432 5.439 9.051 5.1 9.161 4.854 8.94 4.219 8.703 3.538 8.412 2.875 8.127 2.211 8.018 1.956 7.879 1.673 7.53 1.739 7.217 1.799 7.116 2.053 7.059 2.351 6.964 2.84 6.844 3.325 6.714 3.807 6.536 4.469 6.134 4.927 5.466 5.145 4.363 5.504 3.264 5.876 2.087 6.268 1.533 4.638 1.01 3.097 .459 1.475 1.264 1.072 2.018 .692 2.893 .618 3.509 .566 3.972 .783 4.264 1.351 4.376 1.57 4.508 1.796 4.685 1.961 5.011 2.268 5.413 2.121 5.471 1.673 5.502 1.434 5.467 1.168 5.391 .937 4.979-.302 4.562-1.538 4.112-2.764 3.972-3.144 3.786-3.654 3.302-3.596 2.757-3.53 2.761-2.983 2.72-2.537 2.563-.828 1.711 .01 0 0" fill="#1e4a87"/>
<path transform="matrix(1,0,0,-1,95.310398,263.3791)" d="M0 0C.431 .335 .856 .595 1.194 .938 2.459 2.228 3.697 3.545 4.947 4.85 5.216 5.131 5.494 5.404 5.767 5.681 6.483 6.407 6.445 6.895 5.621 7.522 5.488 7.623 5.333 7.699 5.218 7.815 5.014 8.021 4.83 8.303 5.069 8.541 5.2 8.671 5.507 8.631 5.736 8.656 5.784 8.661 5.839 8.619 5.888 8.593 7.054 7.945 8.221 7.302 9.383 6.646 9.735 6.449 10.057 6.216 9.812 5.632 9.555 5.632 9.256 5.6 8.967 5.638 8.073 5.754 7.322 5.479 6.69 4.854 5.345 3.526 4.006 2.193 2.658 .868 1.191-.574-.284-2.009-1.755-3.446-1.855-3.543-1.944-3.697-2.06-3.722-2.339-3.781-2.676-3.879-2.904-3.774-3.089-3.689-3.25-3.331-3.244-3.098-3.233-2.631-3.109-2.166-3.019-1.703-2.485 1.022-1.945 3.746-1.417 6.472-1.362 6.755-1.37 7.051-1.347 7.361-1.877 7.458-2.108 7.15-2.362 6.917-4.568 4.88-6.769 2.839-8.973 .8-9.136 .649-9.301 .498-9.479 .367-9.749 .168-10.084 .093-10.32 .333-10.511 .529-10.638 .838-10.679 1.114-10.714 1.344-10.582 1.598-10.525 1.841-9.614 5.762-8.704 9.683-7.792 13.604-7.667 14.139-7.816 14.591-8.202 14.97-8.341 15.105-8.539 15.211-8.616 15.374-8.701 15.552-8.76 15.831-8.676 15.975-8.604 16.096-8.311 16.114-8.114 16.121-7.988 16.125-7.854 16.033-7.733 15.968-6.413 15.255-5.091 14.545-3.778 13.82-3.475 13.652-3.078 13.499-3.256 13.015-3.365 12.717-3.647 12.688-4.207 12.894-4.337 12.941-4.46 13.009-4.593 13.051-5.045 13.19-5.267 13.102-5.479 12.693-5.529 12.596-5.57 12.49-5.596 12.383-6.19 9.899-6.784 7.416-7.369 4.93-7.43 4.669-7.435 4.394-7.469 4.095-7.043 4.036-6.844 4.302-6.639 4.491-5.39 5.637-4.16 6.805-2.916 7.956-1.978 8.825-1.036 9.689-.079 10.536 .274 10.849 .688 11.196 1.186 10.877 1.656 10.575 1.6 10.04 1.508 9.582 1.071 7.404 .604 5.233 .145 3.06 .024 2.489-.127 1.925-.224 1.35-.291 .955-.418 .534 0 0" fill="#1e4a87"/>
<path transform="matrix(1,0,0,-1,186.0921,259.96989)" d="M0 0C.22-.477 .079-.765-.283-.967-.453-1.062-.645-1.114-.813-1.208-1.448-1.561-1.811-2.083-1.767-2.834-1.752-3.082-1.731-3.334-1.68-3.576-.976-6.862-.277-10.148 .691-13.369 .811-13.766 .897-14.182 .921-14.593 .949-15.067 .692-15.288 .24-15.149-.117-15.04-.472-14.833-.758-14.588-2.785-12.851-4.779-11.075-6.815-9.351-7.812-8.508-8.874-7.742-9.913-6.949-10.129-6.784-10.37-6.652-10.646-6.477-10.864-6.808-10.768-7.108-10.704-7.383-10.179-9.655-9.654-11.929-9.104-14.195-8.83-15.32-8.313-15.686-7.136-15.686-6.914-15.686-6.665-15.632-6.476-15.714-6.277-15.8-6.059-15.994-5.997-16.188-5.961-16.302-6.193-16.53-6.343-16.665-6.436-16.749-6.599-16.76-6.732-16.791-8.19-17.136-9.648-17.478-11.106-17.82-11.215-17.846-11.337-17.923-11.427-17.894-11.671-17.815-11.901-17.693-12.138-17.588-12.026-17.383-11.955-17.136-11.794-16.983-11.554-16.758-11.262-16.582-10.972-16.418-10.381-16.082-10.216-15.553-10.286-14.931-10.354-14.324-10.428-13.714-10.566-13.121-10.989-11.309-11.431-9.501-11.895-7.699-12.047-7.11-12.275-6.539-12.498-5.972-12.794-5.217-13.345-4.766-14.156-4.609-14.532-4.537-14.902-4.395-15.252-4.234-15.368-4.182-15.49-3.964-15.472-3.843-15.453-3.719-15.282-3.558-15.148-3.522-14.103-3.247-13.049-3.001-11.998-2.74-11.606-2.642-11.287-2.787-10.997-3.023-10.393-3.515-9.781-3.997-9.197-4.512-7.551-5.965-5.925-7.443-4.273-8.893-3.627-9.461-2.948-9.995-2.259-10.511-1.986-10.715-1.646-10.829-1.172-11.066-1.218-10.646-1.219-10.405-1.273-10.179-1.75-8.208-2.234-6.24-2.72-4.271-2.773-4.056-2.838-3.843-2.912-3.633-3.29-2.575-3.762-2.248-4.906-2.24-5.101-2.238-5.322-2.295-5.483-2.22-5.686-2.127-5.968-1.934-5.977-1.771-5.985-1.595-5.731-1.392-5.564-1.229-5.497-1.162-5.354-1.173-5.247-1.146-3.736-.781-2.227-.412-.713-.058-.481-.003-.234-.017 0 0" fill="#1e4a87"/>
<path transform="matrix(1,0,0,-1,118.73419,275.758)" d="M0 0C-.233-.22-.372-.408-.558-.511-.738-.609-1.002-.709-1.161-.644-1.307-.582-1.449-.296-1.438-.118-1.398 .518-1.303 1.15-1.209 1.781-1.125 2.359-1.016 2.932-.916 3.507-.892 3.644-.875 3.783-.829 3.913-.687 4.312-.32 4.636-.062 4.567 .327 4.464 .396 4.119 .464 3.789 .6 3.14 .674 2.472 .879 1.846 1.142 1.038 1.658 .378 2.347-.135 3.185-.759 4.136-.903 5.121-.678 6.072-.46 6.676 .177 6.854 1.146 7.035 2.131 6.683 2.953 5.93 3.595 5.679 3.809 5.362 3.944 5.095 4.143 4.159 4.836 3.197 5.5 2.312 6.254 1.628 6.836 1.163 7.608 .927 8.493 .307 10.823 2.154 12.774 3.785 13.221 5.438 13.674 6.981 13.409 8.318 12.28 8.736 11.928 9.106 11.76 9.651 12.101 10.239 12.469 10.518 12.275 10.546 11.587 10.553 11.42 10.546 11.25 10.514 11.088 10.302 10.025 10.084 8.965 9.863 7.904 9.807 7.633 9.76 7.333 9.395 7.309 9 7.284 8.759 7.497 8.681 7.866 8.618 8.164 8.589 8.471 8.567 8.774 8.494 9.788 8.118 10.649 7.355 11.344 6.585 12.046 5.687 12.215 4.716 11.981 3.586 11.711 3.066 10.577 3.478 9.397 3.726 8.688 4.196 8.136 4.772 7.692 5.608 7.049 6.451 6.402 7.354 5.86 8.966 4.895 9.796 2.829 9.188 .841 8.637-.962 7.241-1.773 5.513-2.164 4.396-2.418 3.356-2.204 2.39-1.63 1.865-1.318 1.374-.95 .869-.605 .597-.419 .327-.229 0 0" fill="#1e4a87"/>
<path transform="matrix(1,0,0,-1,167.1419,273.33998)" d="M0 0C-.178 1.936-.347 3.872-.538 5.806-.571 6.133-.659 6.465-.784 6.77-1.011 7.325-1.412 7.668-2.057 7.668-2.332 7.668-2.633 7.669-2.876 7.774-3.075 7.863-3.324 8.103-3.331 8.283-3.338 8.454-3.081 8.67-2.896 8.803-2.776 8.888-2.577 8.868-2.412 8.882-1.111 8.988 .189 9.095 1.49 9.193 1.794 9.216 2.102 9.212 2.406 9.209 2.689 9.206 2.904 9.079 2.925 8.78 2.942 8.516 2.847 8.29 2.548 8.211 2.28 8.141 2.018 8.054 1.749 7.986 1.299 7.875 1.008 7.59 .919 7.146 .822 6.661 .693 6.158 .729 5.674 .876 3.707 1.112 1.748 1.248-.218 1.312-1.152 1.255-2.1 1.191-3.036 1.15-3.633 .843-4.153 .414-4.568-.718-5.665-2.023-6.366-3.647-6.441-5.183-6.512-6.639-6.377-7.933-5.439-8.964-4.692-9.589-3.747-9.606-2.436-9.613-1.883-9.707-1.33-9.744-.775-9.875 1.22-9.997 3.217-10.127 5.213-10.144 5.461-10.188 5.707-10.226 5.954-10.316 6.553-10.676 6.887-11.262 6.993-11.453 7.027-11.664 7.018-11.83 7.102-12.005 7.189-12.247 7.354-12.259 7.502-12.272 7.666-12.091 7.89-11.934 8.008-11.791 8.116-11.57 8.146-11.379 8.161-10.218 8.256-9.054 8.336-7.892 8.425-7.477 8.456-7.062 8.504-6.647 8.528-6.363 8.546-6.053 8.54-6.001 8.171-5.95 7.809-6.163 7.604-6.511 7.531-6.537 7.524-6.564 7.518-6.591 7.51-7.729 7.168-7.886 6.981-7.799 5.805-7.604 3.173-7.384 .543-7.169-2.087-7.148-2.334-7.088-2.579-7.042-2.824-6.809-4.078-6.008-4.744-4.794-4.96-4.385-5.033-3.968-5.08-3.552-5.104-1.543-5.22 .106-3.603 .034-1.586 .016-1.059-.041-.534-.08-.007-.054-.005-.026-.002 0 0" fill="#1e4a87"/>
<path transform="matrix(1,0,0,-1,207.0599,262.77949)" d="M0 0C0 .39 .014 .686-.003 .979-.085 2.531-.191 4.082-.256 5.635-.304 6.808-.451 7.96-.818 9.075-1.128 10.009-1.52 10.205-2.458 9.939-2.725 9.863-2.987 9.775-3.252 9.69-3.521 9.604-3.754 9.641-3.894 9.908-4.028 10.164-3.87 10.337-3.68 10.467-2.231 11.457-.717 12.328 .937 12.931 1.093 12.988 1.375 12.897 1.51 12.776 1.713 12.595 1.606 12.346 1.408 12.207 .854 11.82 .769 11.251 .789 10.654 .873 8.27 .931 5.883 1.081 3.502 1.21 1.48 1.452-.534 1.641-2.553 1.661-2.773 1.682-2.998 1.667-3.218 1.621-3.912 1.077-4.189 .508-3.778 .014-3.422-.451-3.019-.896-2.601-2.88-.735-4.848 1.146-6.829 3.014-7.476 3.623-8.155 4.197-8.805 4.805-9.341 5.307-9.951 5.569-10.693 5.509-10.942 5.489-11.198 5.473-11.441 5.511-11.612 5.537-11.907 5.668-11.903 5.738-11.893 5.928-11.753 6.111-11.66 6.296-11.65 6.315-11.613 6.321-11.589 6.335-10.237 7.104-8.886 7.872-7.532 8.637-7.411 8.705-7.282 8.759-7.151 8.806-6.89 8.899-6.548 9.039-6.421 8.721-6.345 8.528-6.513 8.216-6.623 7.981-6.689 7.842-6.861 7.754-6.977 7.635-7.453 7.139-7.484 6.91-7.021 6.436-5.389 4.768-3.749 3.107-2.087 1.47-1.655 1.043-1.141 .699-.65 .335-.482 .21-.274 .139 0 0" fill="#1e4a87"/>
<path transform="matrix(1,0,0,-1,143.9964,269.60658)" d="M0 0C-.166 .293-.348 .558-.474 .848-.672 1.305-.804 1.793-1.016 2.243-1.51 3.294-2.424 3.694-3.52 3.739-4.132 3.764-4.288 3.593-4.363 2.966-4.695 .235-5.021-2.494-5.358-5.224-5.437-5.856-5.539-6.488-5.652-7.116-5.853-8.229-5.618-8.62-4.513-8.955-4.3-9.02-4.044-9.021-3.883-9.147-3.712-9.281-3.515-9.546-3.543-9.719-3.571-9.886-3.854-10.047-4.057-10.137-4.192-10.197-4.385-10.138-4.55-10.118-6.315-9.911-8.081-9.702-9.847-9.494-9.93-9.484-10.034-9.513-10.093-9.472-10.281-9.34-10.571-9.205-10.605-9.03-10.667-8.706-10.373-8.562-10.074-8.526-9.798-8.494-9.517-8.503-9.243-8.466-8.442-8.359-8.118-8.049-8.015-7.242-7.88-6.195-7.788-5.144-7.659-4.096-7.391-1.92-7.128 .258-6.827 2.43-6.61 3.989-6.818 4.231-8.396 4.238-9.063 4.242-9.592 4.045-10.002 3.533-10.366 3.078-10.717 2.613-11.07 2.151-11.206 1.976-11.308 1.765-11.471 1.622-11.749 1.379-12.091 1.501-12.153 1.861-12.195 2.105-12.19 2.361-12.173 2.61-12.118 3.385-12.055 4.16-11.981 4.934-11.922 5.554-11.772 5.688-11.105 5.624-9.972 5.515-8.842 5.369-7.711 5.235-5.56 4.981-3.409 4.727-1.258 4.474-.706 4.409-.152 4.358 .399 4.289 .893 4.228 1.055 4.06 1.008 3.591 .919 2.708 .808 1.827 .691 .947 .644 .589 .576 .228 0 0" fill="#1e4a87"/>
<path transform="matrix(1,0,0,-1,188.87732,259.883)" d="M0 0C-.359-.019-.721-.062-1.078-.04-1.211-.032-1.424 .113-1.441 .222-1.467 .381-1.388 .594-1.281 .726-1.187 .843-1 .895-.846 .955 .65 1.55 2.146 2.146 3.649 2.727 3.93 2.835 4.235 2.923 4.533 2.935 4.894 2.95 5.091 2.574 4.859 2.3 4.651 2.054 4.363 1.862 4.081 1.696 3.352 1.268 3.257 1.084 3.466 .287 3.508 .126 3.561-.033 3.62-.187 4.735-3.031 5.852-5.876 6.97-8.719 7.041-8.899 7.117-9.079 7.205-9.252 7.651-10.123 7.896-10.235 8.863-10.015 9.248-9.927 9.649-9.807 9.908-10.23 10.069-10.495 9.779-10.859 9.199-11.095 7.655-11.723 6.105-12.334 4.557-12.947 4.429-12.998 4.277-13.075 4.16-13.045 3.966-12.994 3.688-12.907 3.635-12.764 3.576-12.612 3.689-12.336 3.816-12.189 3.952-12.031 4.19-11.961 4.385-11.854 5.249-11.378 5.358-11.112 5.001-10.17 4.726-9.442 4.398-8.735 4.121-8.01 3.346-5.986 2.589-3.956 1.813-1.934 1.654-1.52 1.44-1.127 1.263-.72 1.021-.162 .596 .073 0 0" fill="#1e4a87"/>
<path transform="matrix(1,0,0,-1,241.7669,241.90648)" d="M0 0C-.049 .084-.336 .053-.513 .044-.587 .039-.658-.036-.724-.08-1.457-.557-2.248-.742-3.108-.574-4.71-.256-6.317 .057-7.915 .401-8.309 .485-8.68 .684-9.104 .852-8.848 1.606-8.596 2.198-8.45 2.812-8.074 4.366-8.657 5.611-9.871 6.547-11.037 7.447-12.321 7.407-13.526 6.648-14.37 6.118-15.138 5.465-15.901 4.83-17.138 3.797-18.347 2.732-19.565 1.682-19.693 1.571-19.861 1.492-19.937 1.354-20.024 1.201-20.117 .932-20.043 .839-19.933 .693-19.676 .583-19.49 .596-19.257 .613-19.027 .759-18.802 .86-18.136 1.147-17.831 1.104-17.31 .583-16.997 .27-16.674-.044-16.413-.401-14.887-2.494-13.059-4.326-11.306-6.225-11.006-6.551-10.728-6.899-10.463-7.253-10.062-7.797-9.986-8.295-10.604-8.768-11.041-9.103-11.103-9.535-10.855-9.766-10.463-10.127-10.193-9.773-9.933-9.549-8.745-8.503-7.567-7.443-6.388-6.389-6.265-6.278-6.123-6.162-6.058-6.018-6-5.885-5.969-5.678-6.039-5.566-6.105-5.461-6.317-5.373-6.445-5.391-6.658-5.421-6.865-5.527-7.055-5.638-7.96-6.168-8.189-6.168-8.904-5.408-9.686-4.583-10.423-3.717-11.173-2.856-11.434-2.561-11.491-2.221-11.275-1.858-11.015-1.431-10.715-1.263-10.242-1.369-7.867-1.912-5.487-2.464-3.112-3.002-2.967-3.032-2.746-3.038-2.649-2.953-1.739-2.186-.839-1.404 .035-.587 .132-.499 .089-.164 0 0M-10.356 1.51C-10.556 .282-11.179-.707-12.477-1.259-13.686 .225-15.032 1.576-16.131 3.249-15.239 4.242-14.26 4.948-12.948 5.076-12.436 5.125-11.955 4.944-11.554 4.617-10.569 3.81-10.163 2.732-10.356 1.51" fill="#1e4a87"/>
<path transform="matrix(1,0,0,-1,214.1175,247.33809)" d="M0 0C.812-1.383 1.617-2.745 2.409-4.116 2.599-4.444 2.851-4.519 3.178-4.389 4.003-4.062 4.675-3.539 5.125-2.765 5.361-2.357 5.406-1.929 5.166-1.494 4.973-1.146 4.85-.783 5.042-.373 5.439-.13 5.739-.328 5.958-.637 6.774-1.795 7.592-2.953 8.364-4.141 8.702-4.66 8.679-5.111 8.441-5.292 8.18-5.492 7.651-5.37 7.287-4.89 6.731-4.159 6.047-4.093 5.287-4.396 4.779-4.597 4.293-4.871 3.832-5.168 3.544-5.353 3.501-5.658 3.698-5.976 4.461-7.202 5.189-8.451 5.987-9.656 6.407-10.288 7.008-10.453 7.665-10.06 8.661-9.465 9.602-8.771 10.533-8.074 11.029-7.703 11.218-7.13 11.178-6.517 11.13-5.797 11.021-5.082 10.976-4.362 10.938-3.762 10.969-3.75 11.674-3.53 11.776-3.674 11.899-3.82 11.995-3.983 12.471-4.8 12.938-5.62 13.41-6.437 13.789-7.095 13.78-7.254 13.168-7.671 12.135-8.374 11.078-9.044 10.03-9.726 8.098-10.983 6.163-12.241 4.229-13.498 4.16-13.544 4.098-13.601 4.025-13.643 3.71-13.823 3.428-13.776 3.232-13.468 3.061-13.198 3.112-12.932 3.365-12.729 3.537-12.59 3.74-12.488 3.909-12.345 4.35-11.974 4.42-11.689 4.144-11.179 3.881-10.691 3.582-10.221 3.28-9.754 1.65-7.234 .016-4.718-1.617-2.2-1.927-1.723-2.166-1.605-2.737-1.733-3.032-1.8-3.306-1.981-3.601-2.021-3.779-2.044-4.067-1.945-4.148-1.809-4.229-1.674-4.165-1.384-4.062-1.229-3.947-1.056-3.725-.949-3.537-.83-.932 .822 1.673 2.475 4.283 4.119 4.562 4.294 4.87 4.422 5.164 4.572 5.652 4.326 5.825 3.865 6.08 3.48 6.325 3.11 6.54 2.72 6.761 2.334 6.928 2.041 7.126 1.72 6.828 1.421 6.535 1.126 6.231 1.311 5.922 1.477 5.434 1.738 4.929 1.974 4.417 2.187 3.902 2.4 3.371 2.385 2.896 2.079 1.983 1.495 1.088 .887 .19 .278 .11 .225 .071 .107 0 0" fill="#1e4a87"/>
<path transform="matrix(1,0,0,-1,249.07453,233.12619)" d="M0 0C-.104-1.048-.352-2.271-1.388-3.146-2.106-3.751-2.845-4.343-3.624-4.865-4.086-5.176-4.458-5.445-4.521-6.062-4.579-6.649-4.998-6.784-5.457-6.422-6.395-5.682-7.337-4.948-8.255-4.184-8.476-3.999-8.682-3.729-8.763-3.459-8.924-2.926-8.548-2.588-8.017-2.748-7.779-2.819-7.562-2.955-7.332-3.053-6.237-3.518-5.119-3.795-3.927-3.47-2.403-3.054-1.387-1.404-1.744 .077-2.131 1.678-3.923 2.47-5.365 1.67-6.167 1.226-6.941 .729-7.759 .319-8.734-.17-9.764-.484-10.882-.458-12.205-.427-13.166 .169-13.778 1.32-15.082 3.77-13.959 6.967-11.402 8.063-10.839 8.305-10.399 8.528-10.34 9.264-10.294 9.836-9.854 9.98-9.362 9.662-8.992 9.422-8.672 9.104-8.339 8.812-7.752 8.298-7.173 7.777-6.592 7.26-6.316 7.017-6.157 6.752-6.41 6.394-6.652 6.049-6.929 6.082-7.281 6.233-7.965 6.529-8.649 6.868-9.369 7.026-10.912 7.364-12.191 6.569-12.688 5.076-13.157 3.665-12.375 2.452-10.88 2.384-10.313 2.358-9.7 2.452-9.171 2.655-8.163 3.041-7.178 3.501-6.225 4.009-3.424 5.501 .037 3.409 0 0" fill="#1e4a87"/>
<path transform="matrix(1,0,0,-1,256.70344,223.97579)" d="M0 0C-.083-.162-.181-.426-.338-.648-1.329-2.059-2.332-3.461-3.335-4.862-3.543-5.154-3.751-5.509-4.199-5.279-4.479-5.135-4.47-4.805-4.213-4.315-3.51-2.975-3.559-2.858-4.779-1.957-6.478-.701-8.144 .6-9.838 1.862-10.662 2.476-11.504 3.068-12.362 3.634-13.037 4.078-13.389 4.027-14.009 3.503-14.2 3.342-14.368 3.15-14.57 3.007-14.771 2.866-15.002 2.716-15.251 2.933-15.534 3.18-15.385 3.432-15.243 3.677-15.188 3.773-15.124 3.865-15.06 3.955-14.119 5.266-13.182 6.576-12.236 7.883-12.058 8.13-11.875 8.384-11.646 8.58-11.524 8.685-11.263 8.751-11.135 8.688-11.013 8.629-10.902 8.366-10.93 8.219-10.983 7.927-11.111 7.64-11.251 7.373-11.664 6.582-11.625 6.31-10.962 5.715-10.857 5.622-10.75 5.534-10.638 5.451-8.25 3.678-5.86 1.905-3.471 .134-3.336 .035-3.197-.057-3.055-.145-2.155-.703-1.924-.668-1.188 .064-.997 .256-.768 .437-.521 .535-.212 .658 .022 .436 0 0" fill="#1e4a87"/>
<path transform="matrix(1,0,0,-1,159.05011,246.05678)" d="M0 0C-1.059 .945-2.202 .844-3.085-.282-3.717-1.085-3.937-2.012-3.901-2.816-3.88-4.414-3.58-5.721-2.534-6.736-1.434-7.813 .138-7.602 .94-6.29 2.049-4.48 1.594-1.412 0 0M-.326-6.476C-.393-6.648-.587-6.868-.746-6.891-.913-6.909-1.139-6.749-1.284-6.608-1.386-6.507-1.43-6.312-1.447-6.149-1.673-4.388-1.854-2.613-2.065-.882-2.079-.679-2.104-.406-2.035-.304-1.902-.114-1.734 .005-1.549 .022-1.39 .04-1.085-.203-1.037-.384-.887-.94-.803-1.522-.732-2.097-.582-3.337-.45-4.582-.317-5.822-.291-6.039-.256-6.281-.326-6.476" fill="#1e4a87"/>
<path transform="matrix(1,0,0,-1,175.14582,246.45328)" d="M0 0C-.652 .988-1.483 1.302-2.64 1.011-2.825 .967-3.063 .892-3.275 .741-3.487 1.151-3.39 1.611-3.223 1.885-2.909 2.396-2.529 2.874-2.167 3.354-1.995 3.584-1.664 3.708-1.704 4.141-1.854 4.118-1.999 4.136-2.097 4.074-2.569 3.787-3.077 3.531-3.487 3.17-5.2 1.682-5.584-1.002-4.396-2.905-3.729-3.969-2.688-4.494-1.682-4.265 .247-3.832 1.1-1.665 0 0M-1.505-3.673C-1.881-3.779-2.101-3.522-2.207-3.236-2.552-2.305-2.873-1.365-3.165-.415-3.223-.234-3.147 .025-3.055 .211-2.9 .512-2.627 .538-2.353 .357-2.26 .3-2.079 .044-2.044-.049-1.668-1.056-1.386-1.895-1.015-2.9-.909-3.254-1.144-3.571-1.505-3.673" fill="#1e4a87"/>
<path transform="matrix(1,0,0,-1,142.2933,245.52658)" d="M0 0C-1.17 .243-2.335-.445-2.834-1.673-3.519-3.351-2.676-4.892-.901-5.223-.694-5.262-.384-5.289-.089-5.275-.182-5.54-.318-5.881-.393-6.018-.799-6.732-1.431-7.151-2.203-7.395-2.416-7.465-2.619-7.566-2.834-7.659-2.631-8.052-2.397-8.013-2.137-7.968-.04-7.602 2.247-5.978 2.251-2.887 2.256-1.422 1.39-.282 0 0M.322-2.613C.308-3.02 .287-3.351 .251-3.827 .233-4.044 .207-4.278 .114-4.468-.089-4.888-.782-4.958-1.002-4.552-1.122-4.339-1.108-4.207-1.077-3.792-1.012-2.904-1.007-2.021-.927-1.14-.883-.676-.596-.437-.234-.473 .185-.513 .313-.799 .318-1.17 .326-1.611 .322-2.058 .322-2.499Z" fill="#1e4a87"/>
<path transform="matrix(1,0,0,-1,127.622898,243.19258)" d="M0 0C-1.173 .263-2.142 .61-2.357 .574-2.979 .67-2.896 .216-2.609 .06-2.046-.287-1.448-.18-1.627-.945L-2.872-6.258C-2.979-6.677-3.291-6.928-3.614-6.845L-4.044-6.713C-4.484-6.608-4.871-7.013-4.188-7.252L-1.137-7.897C-.933-7.934-.661-8.042-.435-8.089 .168-8.212 .318-7.85-.083-7.671-.228-7.605-.536-7.527-.682-7.467-1.033-7.321-1.113-6.94-.982-6.438L.395-.729C.526-.228 .395-.096 0 0" fill="#1e4a87" fill-rule="evenodd"/>
<path transform="matrix(1,0,0,-1,254.06873,202.59589)" d="M0 0C.208-.167 .394-.328 .59-.473 .971-.752 1.361-1.019 1.744-1.296 2.026-1.499 2.288-1.755 2.159-2.125 2.033-2.485 1.661-2.433 1.365-2.415 .95-2.392 .521-2.378 .129-2.261-.804-1.979-2.339-3.501-2.396-4.191-2.415-4.406-2.304-4.69-2.153-4.851-1.853-5.173-1.499-5.454-1.139-5.713 1.327-7.484 3.941-9.012 6.64-10.398 7.623-10.905 7.887-10.828 8.646-9.976 9.046-9.525 9.046-9.525 9.723-9.516 9.694-9.813 9.724-10.117 9.626-10.375 9.469-10.787 9.242-11.176 9.019-11.559 8.402-12.615 7.782-13.669 7.142-14.71 6.925-15.063 6.664-15.395 6.375-15.689 6.273-15.793 5.988-15.829 5.856-15.761 5.724-15.693 5.591-15.444 5.611-15.296 5.656-14.974 5.779-14.656 5.905-14.351 6.263-13.481 6.255-13.272 5.508-12.711 4.665-12.077 3.783-11.493 2.891-10.93 1.528-10.068 .132-9.26-1.228-8.395-1.859-7.993-2.445-7.521-3.041-7.065-3.492-6.719-3.746-6.691-4.116-7.104-4.796-7.861-5.082-8.796-5.067-9.789-5.063-10.107-4.784-10.438-4.589-10.734-4.33-11.128-4.014-11.484-3.754-11.877-3.598-12.112-3.512-12.391-3.788-12.624-4.023-12.821-4.244-12.741-4.472-12.59-5.328-12.021-6.193-11.463-7.046-10.888-7.2-10.783-7.312-10.616-7.468-10.453-7.401-10.314-7.354-10.188-7.284-10.074-6.384-8.574-5.467-7.083-4.58-5.573-3.411-3.585-2.27-1.581-1.109 .412-.267 1.86 .364 3.398 .895 4.983 1.032 5.396 1.229 5.788 1.396 6.183 2.196 5.894 2.241 5.789 2.054 5.17 1.954 4.84 1.92 4.49 1.858 4.155 3.375 3.812 7.177 4.356 8.211 5.038 8.168 5.132 8.141 5.244 8.076 5.325 7.055 6.607 6.051 7.906 4.992 9.157 4.419 9.834 4.16 9.777 3.656 9.056 3.53 8.875 3.406 8.661 3.227 8.558 3.063 8.463 2.796 8.428 2.63 8.498 2.521 8.544 2.471 8.822 2.467 8.998 2.464 9.155 2.552 9.317 2.614 9.473 3.066 10.577 3.523 11.682 3.979 12.785 4.021 12.889 4.04 13.021 4.116 13.086 4.252 13.202 4.431 13.365 4.576 13.351 4.727 13.335 4.896 13.154 4.984 13.003 5.062 12.873 5.078 12.676 5.05 12.52 4.931 11.844 5.162 11.248 5.484 10.691 5.873 10.02 6.267 9.34 6.747 8.733 7.66 7.578 8.609 6.449 9.594 5.353 10.838 3.967 12.562 3.573 14.293 3.249 14.717 3.169 15.023 3.419 15.222 3.811 15.37 4.104 15.526 4.412 15.75 4.645 15.866 4.766 16.161 4.812 16.328 4.754 16.442 4.715 16.496 4.443 16.535 4.267 16.557 4.17 16.502 4.05 16.461 3.949 15.771 2.25 15.08 .552 14.387-1.145 14.324-1.299 14.271-1.475 14.159-1.587 14.041-1.706 13.855-1.837 13.706-1.829 13.43-1.814 13.373-1.566 13.414-1.33 13.461-1.059 13.527-.788 13.608-.524 13.837 .218 13.773 .52 13.118 .856 11.678 1.597 10.182 2.276 8.524 2.177 6.391 2.049 4.261 1.821 2.139 1.568 1.194 1.456 .421 .977 0 0" fill="#1e4a87"/>
<path transform="matrix(1,0,0,-1,142.67612,165.11539)" d="M0 0C-.125-.482-1.032-2.539 .264-2.391 1.559-2.241 6.759-1.307 10.738-1.894 14.719-2.48 18.111-3.896 17.664-8.72 17.216-13.544 13.001-14.828 8.756-13.5 4.511-12.171 .705-13.018-.362-13.646-1.429-14.275-1.638-16.338 .871-16.331 3.38-16.324 8.002-16.105 8.046-18.546 8.09-20.987 8.29-27.588 8.25-29.28 8.211-30.972 11.106-29.207 11.442-28.307 11.997-26.819 12.058-24.733 11.278-22.936 10.5-21.138 10.691-19.001 12.635-19.686 14.578-20.371 15.318-21.417 15.241-25.271 15.203-27.155 14.942-30.33 12.567-32.104 10.948-33.313 8.942-34.456 8.79-35.413 8.64-36.357 8.51-45.554 8.352-47.478 8.295-48.173 9.896-47.927 10.722-46.904 11.871-45.481 12.26-42.542 12.316-38.599 12.385-33.758 13.303-33.014 14.371-32.854 14.939-32.77 15.693-33.675 16.164-34.16 17.481-35.52 17.696-37.31 17.205-39.129 16.863-40.398 16.435-44.661 14.403-47.759 12.271-51.01 8.67-51.969 8.666-52.448 8.656-53.716 8.667-60.356 8.852-62.822 8.974-64.444 9.162-66.419 8.703-68.035 8.466-68.874 7.827-69.523 7.139-70.347 5.182-72.688 3.953-70.431 3.68-68.623 3.439-67.024 3.04-65.235 2.959-63.191 2.818-59.618 3.122-55.547 3.147-52.371 3.151-51.756-5.673-50.189-6.217-39.021-6.382-35.63-5.542-35.475-5.171-34.807-4.8-34.139-3.434-32.839-2.154-34.701-.875-36.563-1.108-36.483-1.403-38.104-1.555-38.938-1.29-42.559-.421-44.916 .511-47.444 3.23-47.7 3.232-47.593 3.244-47.161 3.484-37.714 3.445-35.729 3.426-34.718 1.407-34.517-.684-32.042-2.683-29.676-3.147-27.816-3.142-25.616-3.134-21.502-2.661-21.104-1.906-20.713-1.216-20.355-1.562-20.39-2.162-20.192-3.409-19.781-5.25-18.43-4.932-14.272-4.565-9.481 .992-10.278 2.087-10.105 3.182-9.933 3.71-9.293 3.881-8.068 4.052-6.843 2.998-6.121 .584-6.714-1.83-7.307-5.341-6.254-4.978-3.644-4.615-1.033-3.671 .896-2.62 1.644-1.569 2.391 .026 1.643 0 0M26.312 38.463C27.172 44.321 26.922 51.276 26.564 57.384 26.529 57.981 26.14 58.468 25.564 58.633 20.329 60.134 13.81 60.941 5.732 60.941-2.414 60.956-8.974 60.143-14.239 58.629-14.813 58.464-15.202 57.979-15.237 57.383-15.606 51.248-15.86 44.244-15.006 38.387-14.946 37.978-14.735 37.65-14.39 37.426-14.044 37.201-13.658 37.143-13.261 37.255-7.324 38.93-.918 39.82 5.732 39.82 12.318 39.82 18.664 38.947 24.578 37.33 24.974 37.222 25.356 37.282 25.7 37.506 26.043 37.73 26.252 38.057 26.312 38.463M25.475 68.896C24.24 73.776 21.121 76.561 15.246 77.374 12.137 77.804 8.675 78.86 6.222 80.96 5.896 81.239 5.424 81.239 5.097 80.96 2.644 78.861-.819 77.804-3.929 77.374-9.821 76.559-12.94 73.759-14.166 68.856-14.211 68.675-14.162 68.498-14.031 68.365-13.899 68.232-13.722 68.182-13.541 68.226-8.137 69.531-1.771 70.232 5.732 70.232 13.165 70.232 19.482 69.544 24.852 68.265 25.033 68.222 25.21 68.272 25.341 68.405 25.472 68.538 25.521 68.716 25.475 68.896M46.783 28.363C46.207 39.225 43.71 48.302 35.498 54.095 35.223 54.289 34.883 54.309 34.586 54.147 34.29 53.986 34.122 53.69 34.136 53.353 34.416 46.567 34.366 40.695 33.338 35.501 33.211 34.857 33.539 34.229 34.142 33.966 38.188 32.197 41.972 30.055 45.42 27.611 45.697 27.415 46.04 27.396 46.337 27.56 46.634 27.724 46.801 28.023 46.783 28.363M-22 35.443C-23.042 40.616-23.098 46.476-22.8 53.26-22.786 53.598-22.954 53.896-23.252 54.057-23.549 54.219-23.891 54.198-24.166 54.001-32.274 48.216-34.748 39.163-35.31 28.356-35.327 28.018-35.16 27.718-34.862 27.554-34.565 27.391-34.222 27.411-33.946 27.607-30.527 30.036-26.791 32.157-22.801 33.903-22.198 34.167-21.87 34.798-22 35.443M5.091 17.072C-.781 19.713-7.185 22.936-11.081 28.239-11.361 28.621-11.428 29.078-11.268 29.524-11.108 29.971-10.767 30.281-10.307 30.398-5.238 31.689 .148 32.386 5.732 32.386 11.271 32.386 16.613 31.701 21.645 30.431 22.104 30.315 22.446 30.005 22.607 29.559 22.769 29.113 22.703 28.656 22.423 28.273 18.53 22.95 12.111 19.719 6.226 17.072 5.852 16.904 5.465 16.904 5.091 17.072M61.115-60.73C45.523-71.899 26.418-78.476 5.775-78.476-14.884-78.476-34.003-71.89-49.601-60.703-37.609-54.01-35.489-25.653-34.947-6.655-34.722 1.223-35.147 8.99-35.35 16.27-35.362 16.682-35.21 17.042-34.908 17.323-30.803 21.125-25.914 24.365-20.454 26.861-19.802 27.159-19.038 26.914-18.68 26.293-15.787 21.265-11.07 17.134-3.581 13.044-3.312 12.896-3.15 12.642-3.132 12.335-3.115 12.027-3.247 11.756-3.499 11.579-13.216 4.743-19.289-2.009-19.217-16.171-18.887-27.312-19.116-41.021-19.905-52.196-19.905-52.196-20.107-55.268-19.054-56.567-18.001-57.866-16.075-58.619-16.075-58.619-14.249-59.453-12.475-59.277-12.475-56.995-12.475-54.712-12.489-50.768-12.66-16.134-12.738-.267-3.854 4.641 4.738 8.096 5.356 8.345 5.95 8.321 6.573 8.086 15.342 4.766 23.934-.264 23.979-16.134 24.018-29.901 25.734-42.842 23.794-56.995 23.499-59.147 26.13-59.682 27.394-58.619 27.394-58.619 29.15-56.822 30.291-55.681 31.433-54.539 31.225-52.196 31.225-52.196 30.71-41.295 30.48-27.038 30.535-16.171 30.606-2.019 24.54 4.729 14.813 11.565 14.562 11.742 14.431 12.014 14.447 12.32 14.465 12.628 14.626 12.883 14.896 13.03 22.385 17.127 27.109 21.264 30.058 26.31 30.416 26.924 31.172 27.165 31.819 26.874 37.333 24.39 42.229 21.156 46.353 17.367 46.656 17.086 46.81 16.727 46.799 16.313 46.614 9.027 46.188 1.241 46.412-6.655 46.954-25.679 49.08-54.086 61.115-60.73M5.775 111.805C58.319 111.805 100.915 69.209 100.915 16.665 100.915-11.616 88.572-37.009 68.984-54.436 40.253-17.683 73.485 47.156 33.477 65.315 32.557 81.202 21.404 84.025 16.265 84.736 11.125 85.447 10.509 87.349 10.509 87.349 10.489 87.4 10.852 87.412 10.917 87.419 13.469 87.485 16.141 87.946 18.546 88.868 20.346 89.568 21.741 90.126 23.278 91.375 25.815 93.331 29.381 98.851 30.194 102.129 30.265 102.417 30.322 102.709 30.311 103.006 30.297 103.294 30.189 103.559 30.11 103.834 29.765 104.943 28.56 106.855 27.456 107.184 26.991 107.322 26.535 107.193 26.083 107.073 25.746 106.98 25.418 106.861 25.121 106.674 24.488 106.285 24.125 105.637 23.907 104.946 23.898 104.929 23.895 104.911 23.89 104.893 23.69 104.229 23.526 103.578 23.27 102.93 22.521 101.057 21.506 99.329 20.053 97.91 19.588 97.45 19.078 96.98 18.533 96.617 15.777 94.574 14.104 93.221 10.715 93.251 10.116 93.256 9.931 93.34 9.877 93.938 9.837 94.381 9.811 94.825 9.793 95.267 9.807 95.781 9.823 96.291 9.842 96.805 9.913 98.502 10.151 100.221 10.551 101.882 11.056 103.951 10.772 105.951 8.92 107.675 7.985 108.547 6.896 109.301 5.66 109.668 4.689 109.957 3.71 110.041 2.713 109.836 2.5 109.792 2.283 109.727 2.097 109.611 1.716 109.38 1.535 108.982 1.463 108.561 1.366 108.025 1.357 107.484 1.286 106.948 1.216 106.372 1.158 105.796 1.113 105.216 1.113 104.166 1.007 103.12 1.042 102.066 1.056 101.711 1.073 101.361 1.069 101.007 1.065 100.452 1.213 93.453 .999 93.422 .298 93.275-.35 93.35-1.103 93.447-2.201 93.594-2.641 93.811-3.726 94.063-5.445 94.462-7.067 95.22-8.471 96.283-9.871 97.347-11.036 98.693-12.007 100.147-12.272 100.55-12.472 100.988-12.738 101.387-13.025 101.826-13.42 102.141-13.806 102.491-14.183 102.832-14.567 103.164-14.957 103.496-15.813 104.214-16.699 104.892-17.549 105.614-17.562 105.623-17.576 105.632-17.589 105.636-18.52 105.955-19.011 105.552-19.335 104.998-21.227 101.513-20.205 98.981-18.109 95.899-18.039 95.793-17.963 95.683-17.892 95.585-16.952 94.251-16.495 93.714-15.423 92.557-13.712 90.709-11.905 89.766-9.92 89.026-9.07 88.68-8.197 88.392-7.31 88.153-7.018 88.06-6.33 87.914-6.019 87.857-2.081 87.143-.161 87.363 .808 87.349 .808 87.349 .191 85.447-4.947 84.736-10.087 84.025-21.24 81.202-22.18 65.271-61.9 46.959-28.859-17.688-57.484-54.392-77.043-36.966-89.365-11.592-89.365 16.665-89.365 69.209-46.77 111.805 5.775 111.805M8.734-6.209C10.244-6.143 13.461-6.128 13.448-7.508 13.425-10.063 10.629-10.244 8.97-10.015 8.177-9.905 7.93-9.74 7.902-9.145 7.881-8.69 7.863-7.738 7.852-7.039 7.841-6.407 8.143-6.235 8.734-6.209M.128-20.398C.438-20.41 3.72-19.751 3.71-20.99 3.7-22.229 3.604-26.85 3.581-28.185 3.557-29.521 3.069-30.656 2.126-29.866 1.184-29.077 .51-27.992 .816-25.603 1.123-23.213 1.954-21.844 .902-21.163-.149-20.483-.351-20.479 .128-20.398" fill="#1e4a87" fill-rule="evenodd"/>
</g>
</g>
</g>
</g>
</svg>
